<svg xmlns="http://www.w3.org/2000/svg" width="256" height="256"><path fill-opacity=".016" d="M0 128.004v128.004l128.25-.254 128.25-.254.254-127.75L257.008 0H0v128.004m.485.496c0 70.4.119 99.053.265 63.672.146-35.38.146-92.98 0-128C.604 29.153.485 58.1.485 128.5" fill="#1976D2" fill-rule="evenodd"/><path fill-opacity=".219" d="M87.5 1.205c-7.247 2.53-17.012 7.006-23.316 10.688-7.023 4.101-19.129 12.75-20.403 14.576-.484.693-1.382.621-2.737-.219C35.589 22.869 31 26.299 31 33.758 31 39.13 28.621 43 25.319 43c-1.348 0-3.366.49-4.485 1.089-1.735.929-1.941 1.715-1.396 5.346.562 3.748.163 5.082-3.342 11.161-2.189 3.797-5.597 11.089-7.572 16.205l-3.592 9.301.284 37.699L5.5 161.5l3.541 8.581c7.952 19.275 19.815 35.966 41.029 57.728 7.937 8.141 17.045 17.814 20.242 21.496L76.124 256h11.53c10.089 0 11.855-.255 14.122-2.039 2.413-1.898 3.769-2.019 19.658-1.765 9.386.151 22.102-.104 28.256-.567l11.19-.84 2.606 2.606c2.513 2.513 3.022 2.605 14.441 2.605h11.836l3.234-3.25c2.869-2.884 20.335-23.962 30.099-36.324 4.779-6.051 15.189-23.53 21.397-35.926l5.007-10 .28-43.78.281-43.779-3.556-8.205c-1.955-4.513-5.344-11.215-7.53-14.895C236.146 55.08 235 52.014 235 49.21c0-4.545-2.551-8.367-6.744-10.104-2.463-1.02-2.966-1.996-4.067-7.885-1.551-8.299-2.833-9.389-10.689-9.096-5.748.215-6.379-.017-15-5.51-10.175-6.482-20.542-11.705-29.04-14.629C164.092.14 161.116.006 127.093.079 104.386.128 89.362.555 87.5 1.205m18.25 1.457c.688.278 1.813.278 2.5 0 .688-.277.125-.504-1.25-.504s-1.937.227-1.25.504M93.813 5.683c.721.289 1.584.253 1.916-.079.332-.332-.258-.568-1.312-.525-1.165.048-1.402.285-.604.604M88 7c-1.828 1.181-.249 1.181 2.5 0 1.319-.567 1.489-.878.5-.914-.825-.031-2.175.381-3 .914m-12.545 5.364c-8.755 4.185-22.84 12.832-24.025 14.75-.32.517 3.289-1.583 8.02-4.667 4.731-3.083 12.752-7.574 17.826-9.978 5.073-2.404 8.774-4.384 8.224-4.4-.55-.015-5.07 1.917-10.045 4.295M177 11.393c0 .216.698.661 1.552.989.89.341 1.291.173.941-.393-.587-.951-2.493-1.406-2.493-.596M59.507 24.989c-.35.566.051.734.941.393 1.732-.665 2.049-1.382.611-1.382-.518 0-1.216.445-1.552.989m152 16c-.35.566.051.734.941.393 1.732-.665 2.049-1.382.611-1.382-.518 0-1.216.445-1.552.989M165 43.508c-7.425 1.295-18.675 3.478-25 4.85-6.325 1.373-16.959 2.997-23.631 3.61-12.568 1.154-12.974 1.121-34.067-2.802L72.104 47.27l.58 3.115c.319 1.713.858 3.423 1.198 3.8 1.968 2.183 16.64 5.004 28.618 5.503 16.355.682 29.872-1.462 58.672-9.308C180.631 45.079 184 43.824 184 41.878c0-1.319-4.129-.965-19 1.63M41 65.073c0 .814-.436 5.068-.968 9.453-1.736 14.296-2.859 47.645-2.104 62.474.675 13.258.768 13.772 1.083 6l.344-8.5.681 12c1.255 22.097 2.123 28.636 3.869 29.164.877.265 2.495.971 3.595 1.57 1.67.908 1.811.855.853-.323-.785-.966-1.367-12.92-1.847-37.911-.656-34.13-.562-37.498 1.448-51.865 1.183-8.45 2.007-15.425 1.833-15.5-.175-.074-2.223-1.914-4.552-4.088C42.612 65.099 41 64.157 41 65.073m148.712 21.271c-2.044 12.659-3.3 26.555-4.789 53.012-1.111 19.721-1.843 36.371-1.627 37 .215.629.722-3.581 1.126-9.356.88-12.598 2.086-15.105 7.098-14.748l3.476.248.149 6 .148 6 .734-7.5c.403-4.125 1.076-16.625 1.495-27.779.419-11.153 1.148-20.517 1.62-20.809.472-.291.858-2.493.858-4.893 0-4.031 3.405-26.763 4.609-30.769.448-1.491-.161-1.75-4.107-1.75-2.549 0-5.395-.408-6.326-.906-1.517-.811-1.982.884-4.464 16.25m-79.487-2.653c-1.251.25-2.995 1.555-3.876 2.899-1.165 1.778-1.94 2.164-2.843 1.415-1.91-1.585-3.476.965-2.377 3.871.801 2.114 1.33 2.306 4.825 1.747 2.256-.36 4.189-.201 4.545.375.97 1.569 1.734 1.238 5.845-2.538 3.348-3.075 3.674-3.751 2.533-5.245-.721-.943-1.327-1.791-1.346-1.884-.116-.558-5.4-1.021-7.306-.64M89.71 92c-.375 1.435-1.364 2-3.501 2-2.09 0-3.478.761-4.65 2.55-1.195 1.825-2.223 2.374-3.615 1.932-1.285-.407-1.944-.149-1.944.764 0 .948 1.489 1.453 4.75 1.612 3.369.164 5.194.809 6.276 2.216 1.495 1.943 1.59 1.916 4.665-1.295 3.962-4.138 4.378-6.71 1.545-9.543-2.73-2.73-2.871-2.739-3.526-.236m6.864 4.667c-.352.917-.175 2.132.393 2.7 1.462 1.462 1.28 2.633-.408 2.633-.793 0-1.763.521-2.156 1.158-.702 1.134.944.942 4.597-.539 1.658-.672 6 5.134 6 8.022 0 1.554-.126 1.555-1.829.014-1.006-.91-2.356-1.655-3-1.655-.644 0-1.171-.723-1.171-1.607 0-1.055-.544-1.398-1.582-1-.87.334-1.942.607-2.383.607-.441 0-1.037.9-1.325 2-.313 1.197-1.364 2-2.616 2-1.397 0-2.094.638-2.094 1.917 0 1.054-.562 2.113-1.25 2.354-.903.315-.731 1.022.619 2.543 1.225 1.381 1.665 2.916 1.277 4.462-.348 1.384.04 3.258.939 4.542.842 1.202 1.317 2.531 1.056 2.953-.261.423 1.022 1.749 2.851 2.948l3.325 2.18 2.643-2.45c1.454-1.347 3.372-2.449 4.263-2.449s2.483-.782 3.539-1.737c1.827-1.653 1.989-1.642 3.39.25 1.448 1.955 1.494 1.956 2.894.068 1.333-1.799 1.539-1.814 3.267-.25 1.014.918 2.361 1.669 2.992 1.669.63 0 2.586.875 4.344 1.945 3.171 1.928 3.221 1.927 5.967-.028 2.127-1.514 2.911-3.067 3.378-6.694.335-2.598 1.026-5.49 1.537-6.427.593-1.088.557-1.933-.099-2.338-.565-.349-.894-1.608-.73-2.797.248-1.798-.163-2.129-2.452-1.973-2.119.145-2.75-.256-2.75-1.75 0-2.373-4.479-2.739-5.362-.438-.645 1.683-4.638 2.078-4.638.46 0-.573.957-2.335 2.126-3.917 1.829-2.473 2.635-2.808 5.75-2.389 3.342.449 3.481.37 1.783-1.01-1.177-.958-1.619-2.194-1.227-3.429.636-2.005-1.814-5.025-2.792-3.442-.296.479-3.148.935-6.339 1.014-4.619.114-6.08.558-7.173 2.178-1.757 2.606-3.538 2.67-2.15.077.839-1.569.667-2.162-.865-2.982-1.487-.795-2.054-.656-2.546.626-.456 1.189-.936 1.345-1.722.559-.599-.599-1.709-.851-2.467-.56-.758.291-1.378.031-1.378-.578 0-1.755-3.718-1.285-4.426.56m35.456-.297c-1.591 1.591-1.239 3.085 1.284 5.456 2.715 2.549 4.249 2.755 5.048.674.415-1.083 2.112-1.5 6.107-1.5 3.377 0 5.531-.431 5.531-1.107 0-.609-.72-.831-1.6-.493-1.013.389-2.308-.285-3.528-1.836-1.61-2.046-2.741-2.431-6.869-2.337-2.719.062-5.406.576-5.973 1.143m-62.357 6.29c-.37.37-.673 1.996-.673 3.614 0 2.222.372 2.797 1.523 2.356 2.068-.794 6.051 3.196 4.619 4.628-.743.743-1.525.669-2.631-.249-1.321-1.096-1.799-1.001-2.981.593-1.183 1.594-1.729 1.702-3.411.676-2.74-1.672-3.203.111-3.292 12.67-.053 7.524-.396 10.052-1.365 10.052-3.704 0-1.026 4.897 2.717 4.968.923.018 2.385.739 3.25 1.603 1.315 1.316 1.571 1.336 1.571.123 0-.797.666-2.001 1.479-2.677 1.133-.94 1.229-1.695.407-3.229-1.537-2.873.304-4.279 5.396-4.124 2.564.078 4.909-.484 5.978-1.432 1.608-1.425 1.961-1.373 4.065.604C89 135.348 90 135.557 90 133.603c0-2.295-5.283-7.603-7.568-7.603-1.167 0-2.937-.9-3.932-2-2.471-2.73-3.499-2.51-3.508.75-.005 2.005-.737 3.089-2.699 4-3.758 1.745-4.293 1.594-4.293-1.215 0-1.441.83-2.909 2-3.535 1.1-.589 2-1.714 2-2.5 0-1.928 3.7-3.791 6.475-3.26 1.712.327 2.148.034 1.819-1.225-.265-1.013 1.086-3.029 3.479-5.191l3.913-3.535-1.926-2.645c-2.193-3.009-6.166-3.528-7.587-.99-.96 1.716-2.17 1.475-5.75-1.147-1.142-.836-2.379-1.218-2.75-.847m-9.499 2.857c-.622 1.366-1.816 2.483-2.653 2.483-1.837 0-2.006 2.353-.271 3.792.902.748 2.009.383 3.976-1.309 2.497-2.149 2.615-2.561 1.403-4.897l-1.324-2.551-1.131 2.482m79.148.262l-2.055 2.779 2.867 3.433c1.576 1.888 2.866 4.043 2.866 4.789 0 .836.671 1.142 1.753.798 2.175-.69 8.247 2.873 8.247 4.84 0 .796.877 1.726 1.949 2.066 1.958.621 3.742 4.159 2.648 5.252-1.029 1.029-7.445-3.046-7.973-5.064-.422-1.617-1.067-1.834-3.816-1.284-3.957.79-7.321 4.047-8.235 7.972l-.666 2.86 2.303-2.677c2.22-2.582 2.409-2.622 5.296-1.123 1.647.855 3.759 1.312 4.694 1.016 1.78-.565 7.8 2.052 7.8 3.39 0 .426-.526 1.3-1.168 1.942-.891.891-.525 1.811 1.541 3.878l2.71 2.709 2.958-3.239c1.628-1.782 2.959-3.893 2.959-4.691 0-.799.563-2.36 1.25-3.469 1.03-1.663.986-2.183-.25-2.96-1.179-.742-1.57-.361-1.827 1.78-.18 1.498-.745 3.154-1.256 3.68-.574.591-.8-2.47-.592-8 .479-12.672-.322-14.578-4.525-10.775-1.751 1.585-1.948 1.553-3.419-.547-1.23-1.757-1.857-1.984-2.958-1.07-.769.638-2.135.877-3.035.531-1.299-.498-1.506-1.453-1.001-4.612.39-2.439.245-3.983-.375-3.983-.557 0-1.012-.675-1.012-1.5 0-2.718-5.387-1.821-7.678 1.279M169 110.441c0 .793.408 1.693.907 2.001.498.309.671-.34.383-1.441-.611-2.335-1.29-2.63-1.29-.56m-3.22 6.971c.556 6.226 1.467 7.403 3.396 4.389 2.481-3.875 2.91-5.801 1.293-5.801-.808 0-2.296-.827-3.307-1.838-1.783-1.783-1.824-1.687-1.382 3.25m-61.188-1.912c-.901 1.375-2.444 2.5-3.43 2.5-2.093 0-5.406 6.202-4.53 8.482.895 2.333 1.847 1.834 3.629-1.903 1.236-2.593 2.104-3.296 3.589-2.908 1.351.353 2.153-.104 2.589-1.478.493-1.553 1.445-1.958 4.346-1.849 2.043.077 4.691-.213 5.884-.644 1.686-.609 2.31-.342 2.798 1.195.345 1.088 1.604 2.119 2.797 2.292 1.467.212 2.47 1.365 3.097 3.563 1.06 3.71 2.214 4.163 3.144 1.235.732-2.307-2.933-8.985-4.932-8.985-.694 0-2.078-.9-3.073-2-1.441-1.592-3.08-2-8.04-2-5.542 0-6.411.276-7.868 2.5m10.059 15.675c-.975.546-2.453.731-3.284.412-.832-.319-2.379-.116-3.439.452-1.543.825-1.928 2.123-1.928 6.496 0 5.994.11 5.901-5.257 4.41-2.891-.802-4.089-1.838-5.199-4.494-1.867-4.468-3.741-4.625-2.474-.208 1.261 4.397 1.198 4.759-.82 4.742-3.104-.026-6.648-2.436-7.234-4.919-.726-3.073-3.016-3.946-3.016-1.149 0 2.548-2.15 2.686-5.691.366-1.98-1.297-2.507-1.376-2.155-.321.256.767 1.113 1.729 1.906 2.137 8.221 4.234 10.874 5.067 16.859 5.292 7.363.277 10.626 1.599 11.612 4.707.829 2.613 10.89 7.264 14.016 6.48 1.488-.374 2.406-1.591 2.841-3.767.353-1.768 1.638-4.274 2.854-5.568 1.714-1.825 1.823-2.205.484-1.692-.994.382-1.726.194-1.726-.444 0-.609-.708-1.107-1.574-1.107-1.259 0-1.521-1.007-1.308-5.021.216-4.059-.113-5.287-1.714-6.408-1.402-.983-2.498-1.098-3.753-.396m26.975 4.574c-.431 1.787-1.749 3.924-2.928 4.75-2.605 1.825-6.319 1.956-7.115.251-.465-.998-.701-.997-1.168.006-.322.691-1.067.959-1.655.596-.601-.372-.78-.193-.408.408.363.588.095 1.275-.596 1.526-.691.251 1.876.286 5.703.079 6.219-.338 7.251-.697 9.694-3.371 1.64-1.796 3.734-2.994 5.232-2.994 1.373 0 2.819-.521 3.212-1.158.503-.813.001-.96-1.691-.492-6.888 1.905-6.729 1.916-7.119-.512-.331-2.061-.469-1.953-1.161.911m-9.591.185c-1.266 2.366-1.301 3.066-.152 3.066.486 0 1.099-1.125 1.362-2.5.573-2.999.188-3.178-1.21-.566m-.172 32.96c1.151.729 1.151.948 0 1.406-.75.298.1.578 1.887.621 1.787.043 3.25-.323 3.25-.814 0-1.049-2.46-2.113-4.832-2.092-1.323.012-1.386.194-.305.879M40.252 174.5c.011 2.2.216 2.982.455 1.738.239-1.244.23-3.044-.02-4s-.446.062-.435 2.262" fill="#1976D2" fill-rule="evenodd"/><path fill-opacity=".724" d="M101.572 1.564C84.81 4.892 66.765 13.383 51.225 25.252l-5.275 4.029-4.091-1.844c-4.606-2.078-7.783-2.161-9.004-.237-1.164 1.835-1.053 8.562.18 10.866.727 1.358.698 2.564-.097 4.049-.927 1.733-1.759 2.013-4.605 1.552-7.412-1.203-11.069 3.597-6.342 8.324 1.989 1.989 1.985 2.005-2.936 11.25C13.124 74.386 8.681 86.305 6.532 96.842c-2.407 11.8-1.65 47.77 1.224 58.158 4.455 16.108 13.04 32.926 24.681 48.356 7.332 9.717 12.202 14.735 24.796 25.549 5.903 5.068 14.423 13.238 18.932 18.155 4.509 4.917 8.605 8.94 9.103 8.94.498 0 2.946-1.463 5.44-3.25l4.536-3.25 24.128-.005c13.27-.002 29.303-.389 35.628-.859l11.5-.855 3.953 4.109c2.174 2.261 4.649 4.105 5.5 4.099 2.682-.018 10.303-6.914 28.721-25.989 19.289-19.976 22.108-23.481 30.659-38.107 6.203-10.612 8.708-15.982 12.276-26.318 2.335-6.764 2.391-7.695 2.371-40l-.019-33.075-2.945-8.35c-1.62-4.593-5.258-12.68-8.085-17.971-4.409-8.251-5.075-10.213-4.673-13.774.696-6.172-1.34-9.985-6.73-12.604-2.87-1.394-4.39-2.718-4.072-3.548.722-1.881-1.364-10.942-2.775-12.05-.649-.51-2.407-1.22-3.904-1.577-2.173-.519-2.606-.345-2.143.862.369.963-.004 1.512-1.027 1.512-.884 0-1.607-.45-1.607-1s-.436-1-.969-1c-.532 0-.741.591-.464 1.313.567 1.478-3.218 5.37-4.234 4.354-.36-.36.206-1.628 1.256-2.818 1.904-2.155 1.901-2.161-.549-1.545-1.882.473-4.33-.58-10.408-4.48C179.607 8.904 161.537 2.033 146 .574c-4.278-.402-3.722-.18 2.5.998 17.557 3.324 36.485 11.232 49.372 20.627 8.385 6.113 7.295 6.181-2.112.133-10.99-7.067-26.451-14.1-37.423-17.025-13.262-3.536-39.481-4.429-52.438-1.787-17.524 3.574-33.462 10.59-50.051 22.032-8.949 6.172-13.354 7.921-7.309 2.901C64.233 15.42 87.083 4.977 107.357 1.571 111.835.819 113.925.2 112 .196c-1.925-.005-6.617.611-10.428 1.368M118.5 3.647C91.662 6.759 68.637 16.07 51 30.945c-3.499 2.95-3.499 2.952-1.5 4.942 1.997 1.988 2.004 1.988 4.447-.017 1.983-1.628 2.178-2.175 1.029-2.885-.78-.482-1.083-1.211-.673-1.621.409-.41 1.513.023 2.451.962 1.436 1.436 1.505 2.03.43 3.75-.966 1.547.133 1.146 4.52-1.649 7.82-4.982 7.857-5.053 5.834-10.927-.677-1.966-.668-1.967.551-.044 1.231 1.941 1.247 1.941 2.087 0 .571-1.321.67-.764.304 1.716l-.541 3.671 10.318-5.171c5.674-2.845 11.426-5.638 12.78-6.209 2.549-1.072 2.655-1.44 1.511-5.213-.411-1.354-.258-2.25.385-2.25.587 0 1.067.675 1.067 1.5s.45 1.5 1 1.5 1-.675 1-1.5.45-1.5 1-1.5c1.439 0 1.236 1.218-.652 3.914l-1.652 2.359 4.697-.705c2.584-.387 6.365-1.282 8.402-1.988 3.495-1.211 3.572-1.326 1.354-2.031-1.384-.441-2.802-.296-3.45.352-1.444 1.444-3.014 1.417-2.115-.037.386-.625.75-1.981.809-3.013.059-1.032.554-1.758 1.1-1.614.546.145.865.938.709 1.763-.254 1.333-.168 1.333.774 0 .904-1.279 1.41-1.105 3.437 1.184 1.694 1.913 2.999 2.521 4.541 2.118 1.631-.427 2.302-.04 2.722 1.566.451 1.727 1.316 2.132 4.548 2.132 3.032 0 3.859-.34 3.446-1.417-.609-1.588 1.286-2.583 4.92-2.583 2.158 0 2.292-.217 1.206-1.955-1.581-2.532-.046-4.108 1.69-1.734.759 1.039 1.583 1.387 1.934.818.337-.545.155-1.273-.404-1.619-1.525-.942-1.223-2.51.484-2.51.825 0 1.5.45 1.5 1s.675 1 1.5 1c2.34 0 1.76 2.685-.75 3.472l-2.25.706 2.5.811c4.317 1.401 8.736 1.14 9.387-.554.467-1.217.137-1.419-1.479-.906-1.855.589-1.959.434-.959-1.434 1.333-2.491 2.88-2.703 3.722-.511.432 1.126.818 1.244 1.334.408.549-.888 1.25-.85 2.861.156 2.578 1.61 2.829 4.824.384 4.922-.963.039.011.716 2.163 1.504 2.152.789 4.139 1.207 4.416.93.278-.277-.021-.504-.662-.504-.642 0-1.167-.675-1.167-1.5 0-1.827 1.153-1.926 2.912-.25 1.071 1.02 1.188.836.633-1-.564-1.867-.286-2.267 1.638-2.352 1.274-.056-1.697-1.397-6.602-2.98-11.675-3.768-28.736-5.586-40.081-4.271m1.186 3.147c-1.509 1.668-1.449 1.982.854 4.465 2.776 2.995 4.566 2.78 6.47-.778 1.046-1.955 1.05-2.704.018-3.947-1.715-2.067-5.352-1.938-7.342.26M122 7c0 .55.45 1 1 1s1-.45 1-1-.45-1-1-1-1 .45-1 1m2.287 2.63c-1.182 2.546-1.163 2.568.726.858 1.067-.965 1.699-2.145 1.404-2.622-.74-1.197-.766-1.176-2.13 1.764M91 11.441c0 .857.45 1.559 1 1.559s1-.423 1-.941-.45-1.219-1-1.559c-.55-.34-1 .084-1 .941m-4 .328c0 1.329 3.719 4.501 4.789 4.084.497-.194-.377-1.4-1.943-2.679C88.281 11.895 87 11.262 87 11.769M150.5 13c-.34.55-.141 1 .441 1S152 13.55 152 13s-.198-1-.441-1-.719.45-1.059 1m20.112.569c-.427 1.112-1.256 1.361-2.849.856-1.975-.627-2.086-.52-.919.887.73.88 1.065 2.026.743 2.547-.321.52.765 1.417 2.414 1.992 3.153 1.098 3.561.57 3.169-4.101-.08-.963.411-1.757 1.092-1.765.81-.01.719-.351-.262-.985-2.081-1.345-2.693-1.242-3.388.569m-58.469 1.321c-.746.473-.971 1.088-.5 1.366 1.301.768 7.357-.359 7.357-1.369 0-1.132-5.069-1.13-6.857.003M129.5 15c.34.55 1.915 1 3.5 1s3.16-.45 3.5-1c.374-.605-1.009-1-3.5-1s-3.874.395-3.5 1m8.719.158c.461 1.382 4.577 2.152 6.742 1.261 1.275-.525 1.196-.775-.461-1.456-3.027-1.245-6.722-1.13-6.281.195M78.506 16.75c.397.962.947 2.538 1.224 3.5.277.962.901 1.75 1.387 1.75 1.196 0 1.115-2.698-.152-5.066-1.303-2.433-3.451-2.594-2.459-.184M106 15.721c-3.661.657-4.93 2.279-1.782 2.279 3.243 0 5.782-.925 5.782-2.107 0-.491-.338-.832-.75-.757l-3.25.585m41 .575c0 1.54 5.494 3.135 7.19 2.087 1.428-.883-.21-2.071-3.94-2.857-2.491-.525-3.25-.345-3.25.77M76 18.5c.685.825 1.695 1.5 2.245 1.5.558 0 .449-.663-.245-1.5-.685-.825-1.695-1.5-2.245-1.5-.558 0-.449.663.245 1.5m20.322-.118c-1.748.615-3.548 1.515-4 2.001-1.027 1.103 6.85-.222 8.015-1.348 1.488-1.438-.75-1.802-4.015-.653m60.082-.227c-.823 1.332-.284 1.719 3.419 2.46 1.747.349 3.177.227 3.177-.271 0-1.396-5.88-3.348-6.596-2.189m-73.841 5.68c-4.654 2.238-7.458 4.112-6.779 4.531 1.18.729 7.217-1.874 8.328-3.591.336-.52.901-.899 1.254-.842C87.32 24.247 91 22.587 91 21.392c0-.766-.112-1.388-.25-1.383-.138.006-3.822 1.727-8.187 3.826m82.022-3.087c-1.272 1.273-.465 2.252 1.856 2.252 1.343 0 2.724.457 3.069 1.016.346.559 1.054.753 1.575.431.521-.322.716-.96.433-1.418-.726-1.175-6.228-2.985-6.933-2.281M62.583 24.643c-.346.904-.394 1.879-.107 2.167.288.288.538-.114.556-.893.022-1.001.46-.851 1.489.51 1.904 2.516 3.008 1.393 1.308-1.33-1.577-2.525-2.406-2.641-3.246-.454M174 25.031c0 .533.675.969 1.5.969s1.5-.177 1.5-.393c0-.216-.675-.652-1.5-.969-.825-.316-1.5-.139-1.5.393M37.027 29.653c1.36.91 3.71 2.794 5.223 4.187 3.474 3.202 3.537 2.058.131-2.407C40.58 29.072 38.95 28 37.159 28h-2.604l2.472 1.653m32.179.915c-1.232.863-1.99 1.973-1.685 2.466C68.143 34.04 75 31.088 75 29.815c0-1.358-3.413-.914-5.794.753m-18.512 3.071c-.799.799.104 2.361 1.365 2.361.518 0 .941-.675.941-1.5 0-1.546-1.18-1.987-2.306-.861M62 36.5c-1.292 1.375-2.023 2.5-1.625 2.5C61.902 39 67 35.902 67 34.974c0-1.799-2.631-.996-5 1.526m102 6.554c-8.525 1.536-19.325 3.727-24 4.868-4.675 1.142-14.735 2.621-22.356 3.287-13.01 1.137-14.688 1.071-27.5-1.084-7.504-1.262-14.657-2.53-15.894-2.818-1.878-.437-2.25-.106-2.25 2.003 0 4.534 1.116 5.646 7.72 7.685 13.786 4.258 32.238 4.775 50.78 1.422 7.501-1.357 30.547-7.178 45.735-11.553 5.923-1.706 8.765-3.748 8.765-6.298 0-.984-5.05-.385-21 2.488m46.459-1.987c-.987 1.597-.382 1.638 4.541.309l4.5-1.215-4.191-.081c-2.305-.044-4.488.4-4.85.987m10.81-.374c.973.254 2.323.237 3-.037.677-.274-.119-.481-1.769-.461-1.65.02-2.204.244-1.231.498M25.5 47c.34.55 2.054.993 3.809.985 2.428-.012 2.832-.247 1.691-.985-1.983-1.282-6.292-1.282-5.5 0m203.519 8.124c-.035 1.16 5.206 9.984 5.661 9.53.247-.248-.921-2.634-2.596-5.302-1.675-2.669-3.055-4.571-3.065-4.228M18.644 67.14c-7.987 16.591-12.855 34.778-12.511 46.741.101 3.505.333 2.725.962-3.238 1.553-14.719 6.668-31.279 14.406-46.645 1.995-3.961 3.399-7.431 3.12-7.71-.279-.279-2.969 4.604-5.977 10.852m21.969.173c-.27 2.303-1.059 8.237-1.753 13.187-.838 5.967-1.253 21.468-1.234 46 .032 40.002 1.268 54.193 5.182 59.453 1.042 1.401 9.724 7.207 19.293 12.903 9.57 5.696 24.935 14.857 34.146 20.358 9.894 5.91 17.366 9.765 18.26 9.422 1.197-.459 44.074-24.973 75.182-42.983l5.189-3.005.537-6.074c.295-3.341 1.004-15.299 1.577-26.574 1.756-34.591 3.107-49.946 5.608-63.719 1.32-7.271 2.4-13.684 2.4-14.25 0-.567-1.589-1.031-3.532-1.031s-5.093-.652-7-1.449L191 68.102l-.017 4.699c-.01 2.584-.63 7.624-1.378 11.199-2.458 11.753-3.582 23.126-5.139 52-2.286 42.422-2.128 41.236-5.843 43.741-1.717 1.158-16.749 9.977-33.403 19.597l-30.281 17.491-12.719-7.086c-13.118-7.307-41.197-24.633-49.33-30.439-4.234-3.022-4.661-3.719-5.241-8.547-.347-2.891-.613-20.782-.59-39.757.035-28.573.363-36.562 1.909-46.5l1.866-12-4.865-4.687-4.865-4.687-.491 4.187m194.951-.02c.376.986.935 1.541 1.243 1.233.308-.307.001-1.114-.683-1.793-.988-.98-1.102-.865-.56.56M20.794 69.5c-.847 1.65-1.841 3.975-2.208 5.167-.564 1.83-.345 2.083 1.405 1.625 2.848-.745 4.069-3.43 3.131-6.89l-.787-2.902-1.541 3m4.716-.484c.346.559 1.047.758 1.559.441C28.456 68.6 28.198 68 26.441 68c-.857 0-1.276.457-.931 1.016M28 82c-.591 1.105-.659 2-.152 2 .505 0 1.154-.9 1.442-2 .287-1.1.356-2 .152-2-.205 0-.853.9-1.442 2m-8 1c0 .55.477 1 1.059 1s.781-.45.441-1-.816-1-1.059-1-.441.45-.441 1m89.66.394c-1.562.704-3.226 1.904-3.698 2.667-.471.763-1.885 1.398-3.141 1.413-2.917.033-3.583 3.026-1.248 5.607 2.014 2.225 1.207 3.811-1.005 1.975-.814-.675-1.943-.942-2.509-.592-.566.349-2.371-.737-4.01-2.414-1.64-1.678-3.233-3.05-3.54-3.05-.307 0-.99 1.135-1.518 2.523-.764 2.009-1.439 2.403-3.315 1.932-1.789-.449-2.75.009-3.992 1.904-.899 1.372-2.658 2.641-3.909 2.818-1.251.178-2.275.998-2.275 1.823s.563 1.388 1.25 1.25c1.52-.304 1.673 2.371.187 3.289-.585.361-1.858-.062-2.829-.941-.971-.879-2.743-1.598-3.937-1.598-1.673 0-2.171.598-2.171 2.607 0 1.966-.389 2.458-1.582 2-.87-.334-1.942-.607-2.383-.607-.441 0-1.037-.9-1.325-2-.704-2.694-2.494-2.539-2.89.25-.208 1.458-1.124 2.364-2.605 2.574-1.557.221-2.827 1.576-3.986 4.25-.935 2.159-2.27 3.926-2.965 3.926-.695 0-1.264.973-1.264 2.162C49 119.65 53.628 128 55.007 128c1.509 0 3.053-3.727 4.029-9.723.504-3.096 1.367-6.08 1.916-6.629.55-.55 3.304-1.296 6.12-1.657 3.828-.491 5.485-.291 6.571.795 1.914 1.914.872 2.886-1.227 1.144-1.398-1.16-1.833-1.08-3.028.554-1.083 1.481-1.663 1.641-2.592.712-3.351-3.351-6.805.648-5.399 6.251.42 1.674.115 2.727-.968 3.333-1.439.805-1.431 1.404.087 6.627 1.693 5.824 1.554 7.372-.546 6.075-.639-.395-.972-2.016-.739-3.6.517-3.527-.555-3.649-3.776-.427-2.788 2.787-3.157 4.545-.955 4.545.933 0 1.5.944 1.5 2.5 0 1.984.504 2.5 2.441 2.5 1.343 0 2.719.45 3.059 1 .34.55 1.679 1 2.976 1 1.296 0 2.587.563 2.867 1.25.957 2.349 4.699-3.47 4.097-6.373-.651-3.144 1.276-4.209 6.008-3.321 2.239.42 3.567.13 4.489-.98 1.781-2.147 3.777-1.98 5.063.424 1.244 2.324 3 2.652 3 .559 0-2.465 1.924-2.781 4.684-.771 2.477 1.804 2.83 1.825 5.475.32 1.556-.884 2.831-2.156 2.835-2.827.003-.684.68-.96 1.543-.628.846.324 2.412-.202 3.481-1.17 1.59-1.438 2.221-1.529 3.463-.499 1.223 1.015 1.82 1.011 3.061-.019 1.169-.97 1.824-.999 2.7-.123.637.637 2.193 1.158 3.458 1.158 1.265 0 2.3.417 2.3.927 0 .509 1.282 1.566 2.849 2.348 2.583 1.289 3.11 1.23 5.661-.628l2.812-2.048 1.429 2.152 1.428 2.152 2.225-2.586c1.892-2.2 2.541-2.417 4.344-1.452 1.166.624 3.613 1.149 5.436 1.167 1.824.017 4.17.678 5.214 1.469 1.587 1.2 1.686 1.693.604 2.997-1.084 1.306-.946 1.933.851 3.846 1.181 1.257 2.147 2.829 2.147 3.494 0 .83.783.695 2.5-.43 1.375-.901 2.5-2.209 2.5-2.906 0-.698.9-1.504 2-1.792 1.33-.348 2-1.364 2-3.033 0-1.381.51-2.68 1.133-2.888 1.679-.56.093-4.583-2.079-5.272-1.92-.609-3.421-7.172-1.86-8.137.443-.274.806.373.806 1.439 0 1.718 2.698 5.075 3.274 4.074 3.971-6.902 5.746-11.256 5.239-12.853-.413-1.3-1.175-1.738-2.314-1.33-.935.335-1.379.255-.989-.177 1.021-1.131-1.999-6.533-3.652-6.533-.765 0-1.595-.562-1.844-1.25-.26-.721-.999-.086-1.743 1.5-.711 1.513-1.633 2.75-2.05 2.75-.416 0-1.436.26-2.265.579-1.089.417-1.598-.208-1.832-2.25-.286-2.493-.68-2.79-3.324-2.503-1.65.179-3.377.998-3.839 1.82-.741 1.32-.973 1.321-2 .008-.638-.817-2.061-1.696-3.161-1.954-1.101-.258-.315-.52 1.75-.584 3.11-.096 3.75-.476 3.75-2.223 0-1.39-.474-1.925-1.394-1.572-.766.294-2.419-.558-3.674-1.893-1.254-1.336-3.255-2.428-4.446-2.428-1.369 0-2.607-.969-3.366-2.636l-1.201-2.636-2.701 2.386c-1.485 1.312-2.93 2.611-3.209 2.886-.975.958-11.933.932-12.528-.03-.333-.54.668-.97 2.26-.97 3.456 0 5.259-1.611 5.259-4.7 0-2.527-.972-2.928-2.763-1.137-.884.884-1.406.524-2.175-1.5-.557-1.465-1.586-2.669-2.287-2.677-.701-.007-2.175-.206-3.275-.442-1.1-.236-3.278.147-4.84.85m-84.409 5.753c-.653 1.73-.896 3.618-.54 4.194.54.874 2.959-4.089 3.213-6.591.205-2.02-1.626-.379-2.673 2.397M104.5 96c.34.55.816 1 1.059 1s.441-.45.441-1-.477-1-1.059-1-.781.45-.441 1m-12.086 6.09c-1.765 1.842-3.578 2.839-4.653 2.558-2.208-.578-2.31.945-.144 2.157 1.365.765.944 1.532-2.712 4.943-3.637 3.392-4.127 4.28-3.068 5.555 1.597 1.924-.125 3.195-2.515 1.857-2.039-1.141-6.322.529-6.322 2.465 0 .718-.9 1.786-2 2.375-1.193.638-2 2.094-2 3.607 0 2.305.143 2.393 1.571.964.865-.864 1.99-1.571 2.5-1.571.511 0 .929-1.098.929-2.441 0-3.226 1.696-4.144 3.926-2.126.99.896 2.874 1.829 4.187 2.073 1.313.245 3.378 1.581 4.589 2.969 3.601 4.129 5.458 3.246 2.896-1.377-.732-1.321-1.094-3.309-.804-4.417.369-1.411-.345-2.711-2.384-4.342-2.775-2.221-2.805-2.329-.66-2.334 1.732-.004 2.25-.581 2.25-2.505 0-1.982.504-2.5 2.433-2.5 1.554 0 2.661-.722 3.067-2 .349-1.1 1.279-2.067 2.067-2.15 3.54-.371 3.919-.278 3.683.9-.138.688.666 1.25 1.785 1.25 1.706 0 1.867-.315.995-1.944-1.616-3.019-2.395-3.119-6.906-.887-2.314 1.144-4.438 1.85-4.721 1.567-.672-.671 3.675-5.296 5.548-5.901.907-.293 1.058-.711.403-1.116-.576-.356-2.349.71-3.94 2.371M129 99.893c0 .491.739 1.176 1.641 1.523 1.373.527 1.435.38.378-.893-1.44-1.735-2.019-1.916-2.019-.63M80.5 102c.34.55.816 1 1.059 1s.441-.45.441-1-.477-1-1.059-1-.781.45-.441 1m57.898 1.73c-.958 1.519-1.444 1.57-3.975.417-2.883-1.314-2.884-1.314-.999.769 2.513 2.777 4.82 2.62 6.232-.424 1.313-2.83.397-3.385-1.258-.762m-16.166 3.309c-1.641 2.041-1.936 3.026-1.069 3.562.712.44 1.784-.141 2.64-1.43 1.828-2.754 5.841-2.869 6.69-.193.409 1.29 1.388 1.898 2.817 1.75 1.725-.18 2.195.303 2.211 2.272.015 1.648.587 2.504 1.68 2.513 2.727.021 3.116 1.247.79 2.492-1.503.804-2.016 1.792-1.653 3.181.29 1.109.035 3.097-.568 4.419-1.722 3.78-.001 4.094 3.205.583 5.119-5.604 10.27-6.331 11.454-1.616.335 1.336 1.128 2.428 1.761 2.428.634 0 1.975.745 2.981 1.655 1.719 1.555 1.829 1.524 1.829-.521 0-1.352-.948-2.609-2.5-3.316-1.375-.626-2.5-1.73-2.5-2.453 0-.722-1.391-2.033-3.091-2.912-2.812-1.454-3.248-1.456-4.829-.026-2.574 2.33-4.418 2.074-3.08-.427.772-1.443.747-2.627-.09-4.25-1.551-3.008-5.019-6.75-6.256-6.75-.548 0-1.707-.613-2.575-1.363-.869-.749-2.929-1.6-4.579-1.89-2.434-.428-3.428.004-5.268 2.292m29.018 3.6c-1.367.577-1.74 3.361-.45 3.361.44 0 1.383-.562 2.095-1.25 1.043-1.006 1.597-.806 2.841 1.028 1.446 2.131 1.662 2.172 3.367.629 2.294-2.077 4.897-1.158 4.897 1.728 0 1.209.268 1.931.595 1.603.327-.327.288-1.993-.087-3.702-.619-2.816-1.025-3.096-4.345-2.992-2.015.063-4.563-.121-5.663-.409-1.1-.288-2.562-.286-3.25.004m-46.679 5.893c-.912 1.392-2.082 2.27-2.6 1.95-1.003-.62-4.961 5.172-4.967 7.268-.007 2.36 1.801 1.248 2.846-1.75.724-2.076 1.707-3 3.192-3 1.292 0 2.35-.782 2.659-1.966.442-1.69 1.111-1.884 4.757-1.385 2.458.337 5.153.094 6.408-.577 1.881-1.007 2.278-.858 3.013 1.129.471 1.273 1.683 2.291 2.734 2.294 1.264.003 2.203 1.078 2.844 3.255.992 3.371 2.543 4.408 2.543 1.7 0-2.91-3.021-7.45-4.958-7.45-1.049 0-2.193-.9-2.542-2-.553-1.742-1.513-2-7.452-2-6.192 0-6.97.233-8.477 2.532M163.232 132c0 1.925.206 2.713.457 1.75.252-.963.252-2.537 0-3.5-.251-.963-.457-.175-.457 1.75m-55.949-.347c-1.895 1.322-2.132 2.169-1.632 5.815.694 5.064-.138 5.809-4.861 4.36-2.431-.747-3.971-2.046-4.915-4.148-.756-1.684-1.986-3.254-2.733-3.49-1.067-.337-1.209.455-.662 3.691.582 3.445.425 4.119-.958 4.119-2.913 0-5.282-1.873-6.391-5.054C84.09 133.961 82 133.663 82 136.5c0 2.364-1.873 2.688-4.967.86-1.634-.965-3.323-1.402-3.752-.971-.959.962 3.363 4.611 5.462 4.611.836 0 3.019.926 4.849 2.057 2.223 1.373 5.082 2.07 8.607 2.098 6.248.048 10.312 1.889 11.16 5.055.963 3.592.744 9.79-.345 9.79-.542 0-2.177 1.8-3.633 4-2.104 3.181-3.258 4-5.629 4C90.671 168 81 172.671 81 174.159c0 1.146.506 1.074 4.654-.659 1.975-.825 5.62-1.5 8.1-1.5 2.846 0 5.772-.78 7.931-2.114 4.662-2.882 5.478-1.518 1.252 2.094-2.657 2.272-3.025 2.948-1.621 2.979 2.497.056 5.845-1.775 7.912-4.326l1.728-2.133.022 2.25c.026 2.687 2.475 2.996 3.972.5.976-1.627 1.121-1.632 2.058-.075 1.128 1.876 7.754 4.396 8.803 3.348.372-.372-.893-1.958-2.811-3.523-4.175-3.408-3.267-5.313 1.021-2.143 2.273 1.681 4.795 2.322 10.445 2.653 4.096.241 7.688.05 7.981-.424.493-.798-5.209-2.987-11.679-4.483-1.604-.371-3.343-1.814-4.213-3.496-.814-1.576-2.229-3.152-3.144-3.503-1.343-.515-1.569-1.61-1.175-5.704.699-7.276 2.944-9.156 11.918-9.978 6.209-.569 7.437-1.014 9.096-3.29 1.054-1.448 2.809-2.632 3.899-2.632 2.574 0 5.851-1.77 5.851-3.16 0-1.057-3.552-.734-7.119.647-1.129.437-1.797-.058-2.21-1.637-.705-2.697-1.726-1.907-3.136 2.427-.671 2.062-1.995 3.517-3.765 4.138-3.514 1.232-3.949.695-2.77-3.415.531-1.852.751-3.582.489-3.844-.851-.852-4.489 3.104-4.489 4.88 0 1.208-1.333 2.062-4.443 2.845-2.443.616-4.622 1.119-4.841 1.119-.22 0-.092-2.02.282-4.49.617-4.063.443-4.646-1.828-6.134-2.04-1.337-2.875-1.417-4.458-.428-1.397.872-2.254.91-3.03.134-1.364-1.364-1.688-1.322-4.399.571M6.158 135c0 1.375.227 1.938.504 1.25.278-.687.278-1.812 0-2.5-.277-.687-.504-.125-.504 1.25" fill="#1976D2" fill-rule="evenodd"/><path fill-opacity=".371" d="M113 2.589c-7.426 1.338-21.095 4.65-20.724 5.021.237.236 4.209-.51 8.827-1.658C111.655 3.329 133.452 2.287 144 3.901c11.141 1.705 24.327 5.764 34.818 10.718 7.817 3.69 12.011 6.208 22.531 13.525.51.354-.051 1.693-1.244 2.974-1.725 1.851-2.524 2.107-3.888 1.247-2.237-1.411-2.214-3.904.033-3.726 2.326.184 2.216-.867-.25-2.407-1.751-1.093-2-.999-2 .76 0 1.104-.45 2.008-1 2.008s-1-.525-1-1.167c0-.641-.286-.88-.635-.531-.35.35.11 1.775 1.023 3.167 2.02 3.083 1.193 3.183-3.361.407-2.347-1.431-3.045-1.603-2.155-.53 2.228 2.684.831 3.536-3.165 1.93-3.625-1.457-3.717-1.607-2.095-3.4.934-1.032 1.233-1.876.665-1.876-.567 0-1.572.651-2.233 1.447-1.044 1.258-1.639 1.237-4.571-.161-2.757-1.315-3.198-1.931-2.422-3.381 1.512-2.825 1.102-3.316-.803-.963-1.684 2.08-1.898 2.102-5.54.58-2.318-.968-3.519-2.019-3.094-2.707.47-.76.24-.839-.709-.244-1.601 1.002-4.877.666-6.506-.667-.605-.496-3.186-1.187-5.735-1.537-4.348-.596-4.603-.797-4.126-3.251.479-2.466.451-2.487-.483-.366-.781 1.773-1.808 2.25-4.85 2.25-3.689 0-3.84-.127-3.433-2.901.297-2.02-.212-3.539-1.673-5-2.942-2.942-3.652-2.617-1.172.536 3.379 4.296 2.775 6.365-1.857 6.365-3.281 0-4.003-.372-4.364-2.25l-.434-2.25-.136 2.25c-.117 1.936-.695 2.25-4.136 2.25-2.816 0-4-.427-4-1.441 0-.793-.449-1.718-.997-2.057-.65-.402-.641.319.025 2.07l1.021 2.687-4.991-.479c-2.745-.264-4.775-.132-4.512.294.63 1.02-2.348 1.579-5.796 1.09-1.513-.215-2.75-1.015-2.75-1.777 0-.763-.408-1.387-.906-1.387-1.263 0-.147 3.803 1.259 4.291.631.22-.203.216-1.853-.007-2.412-.326-2.706-.182-1.5.736 1.195.91.924 1.015-1.334.521-1.843-.404-2.609-.258-2.191.419.896 1.449-.792 1.303-2.422-.21-1.091-1.012-1.248-.964-.828.25.36 1.037-.211 1.544-1.85 1.644-1.304.079-4.613 1.317-7.354 2.75C80.279 27.827 77.402 29 76.625 29c-.776 0-1.643.604-1.926 1.342-.284.739-2.132 2.11-4.107 3.047-1.976.938-3.592 2.037-3.592 2.442C67 36.73 61.609 40 60.127 40c-.585 0-.805-.675-.489-1.5.638-1.662-1.16-2.083-2.138-.5-.34.55-1.863 1-3.385 1-3.043 0-7.746-4.171-6.668-5.915.402-.649.054-.831-.895-.467-.953.366-1.552.049-1.552-.823 0-2.156-5.56-5.805-8.71-5.716l-2.79.079 3 1.046c4.147 1.445 7.779 5.055 10.951 10.884 3.903 7.171 2.894 9.682-1.279 3.181C42.795 36.006 35.825 29 33.966 29c-1.99 0-2.191 3.122-.489 7.579 1.429 3.741 1.964 4.299 3.167 3.302 1.019-.846.916-.245-.349 2.034-1.695 3.054-2.046 3.206-6.295 2.73-4.369-.489-4.298-.427 2.41 2.122 7.682 2.92 7.334 4.052-.689 2.239-9.001-2.035-8.958-2.015-7.651-3.59 1.388-1.672.555-1.821-2.136-.381-1.064.57-1.934 1.716-1.934 2.548 0 1.876 4.932 6.577 6.126 5.839 1.476-.912 1.022.328-3.189 8.704-2.235 4.444-3.913 8.231-3.729 8.415.184.184 1.843-2.575 3.687-6.131 2.868-5.533 3.659-6.377 5.479-5.851 1.169.338 2.901 1.51 3.848 2.604 1.496 1.728 1.553 2.405.432 5.163-.801 1.969-2.119 3.295-3.472 3.494-2.518.368-2.983 2.18-.56 2.18 1.176 0 1.342.345.603 1.25-1.094 1.341-6.251 15.788-6.185 17.325.055 1.272 3.589-5.92 4.98-10.134 1.08-3.273 2.366-4.328 3.281-2.691.231.412-.27 2.325-1.113 4.25-.843 1.925-1.581 3.95-1.639 4.5-.682 6.442-2.759 8.89-5.349 6.3-.933-.933-1.2-.848-1.2.383 0 .871.873 1.812 1.94 2.091 1.742.456 1.826.877.828 4.13-.914 2.979-1.48 3.522-3.19 3.057-1.934-.525-1.957-.467-.328.847 1.78 1.437 2.236 4.262 1.146 7.103-.428 1.115-1.336 1.391-3.108.947-1.569-.394-2.802-.145-3.305.669-.635 1.029-1.146.953-2.464-.365-.914-.914-2.192-1.638-2.84-1.61-2.891.129 4.119 3.448 7.281 3.448 3.293 0 3.563.237 3.863 3.386.287 3 .087 3.324-1.75 2.843-1.14-.298-2.073-.092-2.073.458s.9 1.236 2 1.523c2.905.76 2.905 7.29 0 7.29-1.1 0-2 .45-2 1s.9 1 2 1 2.006.563 2.014 1.25c.007.688.285 2.263.616 3.5.487 1.815.194 2.25-1.513 2.25-1.165 0-2.117.45-2.117 1s.852 1 1.893 1 2.166.712 2.5 1.582c1.077 2.807.647 5.418-.893 5.418-.825 0-1.5.73-1.5 1.622 0 1.329.272 1.398 1.5.378 1.263-1.048 1.737-.677 3 2.346 1.846 4.419 1.85 4.654.067 4.654-.788 0-1.689-.808-2.002-1.796-.748-2.354-7.07-2.936-7.918-.728-.654 1.706.445 2.032 1.911.566.527-.527 1.528-.607 2.224-.177.966.597.82 1.185-.614 2.483-2.678 2.424-4.81 1.156-6.795-4.04-1.365-3.577-1.48-4.908-.549-6.398 1.561-2.499 1.498-6.572-.11-7.189-.944-.363-1.178.473-.88 3.143.223 2 .101 3.348-.271 2.996-.372-.353-1.101-6.237-1.618-13.077-1.33-17.568 1.398-37.432 7.144-52.008 1.091-2.769 1.787-5.233 1.545-5.474-.633-.634-4.286 9.474-6.558 18.149-10.61 40.51.416 82.71 30.117 115.265l6.191 6.785-8.367-8c-7.739-7.4-8.035-7.588-3.942-2.51 5.854 7.262 8.663 10.021 19.761 19.401 5.134 4.34 13.382 12.665 18.328 18.5 12.513 14.762 11.897 14.459 17.742 8.701l4.797-4.725 20.899.317c11.494.174 27.12-.084 34.726-.573l13.827-.889 5.343 5.276c3.197 3.157 5.915 5.058 6.766 4.731.783-.301 6.312-6.1 12.288-12.888 5.975-6.787 14.991-16.271 20.036-21.075 12.791-12.181 25.152-30.958 32.76-49.766 4.249-10.507 7.667-25.438 7.521-32.859l-.131-6.641-.896 7.849c-.999 8.746-7.283 28.616-12.024 38.019-3.372 6.688-10.187 17.124-11.855 18.155-.576.356.539-1.832 2.476-4.861 10.406-16.267 17.55-34.63 19.673-50.571 1.603-12.029.573-34.466-2.039-44.43-3.841-14.657-9.21-27.381-16.839-39.911-2.26-3.713-3.693-6.75-3.184-6.75.508 0 2.134 1.913 3.611 4.25l2.686 4.25 1.281-3c2.12-4.962 1.665-8.361-1.551-11.577-2.68-2.68-5.928-4.109-4.654-2.047.511.826-16.44 2.268-17.35 1.475-.235-.204.44-1.05 1.5-1.879 1.44-1.126 3.57-1.384 8.427-1.018 4.724.356 6.02.21 4.744-.535-1.206-.704-1.574-1.749-1.175-3.338.738-2.94-1.268-10.528-2.954-11.175C216.247 23.113 202 33.463 202 37.201c0 .623-.254.878-.565.567-.311-.311.861-3.424 2.605-6.917s2.584-5.788 1.866-5.101c-2.053 1.965-3.6 1.532-9.96-2.787-5.637-3.828-19.943-11.281-26.446-13.778-11.649-4.474-22.239-6.337-38-6.689-8.8-.196-17.125-.154-18.5.093M86.5 9.535c-2.501 1.205-2.584 1.343-.5.834 2.834-.692 6.018-2.316 4.5-2.293-.55.008-2.35.664-4 1.459m52.058-.628c-.309.498.34.671 1.441.383 2.335-.611 2.63-1.29.56-1.29-.793 0-1.693.408-2.001.907M110 9.378c0 .207.787.995 1.75 1.75 1.586 1.243 1.621 1.208.378-.378C110.821 9.084 110 8.555 110 9.378m-3.333 1.289c-.367.366-.667 1.131-.667 1.7 0 .626.466.567 1.183-.15.651-.651.951-1.416.667-1.7-.284-.285-.817-.217-1.183.15M80 12c-.825.533-1.05.969-.5.969s1.675-.436 2.5-.969c.825-.533 1.05-.969.5-.969s-1.675.436-2.5.969m75.5 0c-.34.55-.141 1 .441 1S157 12.55 157 12s-.198-1-.441-1-.719.45-1.059 1m-46 3c.34.55.816 1 1.059 1s.441-.45.441-1-.477-1-1.059-1-.781.45-.441 1m55.5.882c0 .55.45 1.278 1 1.618.55.34 1 .168 1-.382s-.45-1.278-1-1.618c-.55-.34-1-.168-1 .382m-85.436 1.411c.376.986.935 1.541 1.243 1.233.308-.307.001-1.114-.683-1.793-.988-.98-1.102-.865-.56.56M155 17.5c0 .825.177 1.5.393 1.5.216 0 .652-.675.969-1.5.316-.825.139-1.5-.393-1.5-.533 0-.969.675-.969 1.5m21.98.024c-.696.838-1.012 1.777-.704 2.086.309.309 1.064-.377 1.678-1.524 1.31-2.448.824-2.728-.974-.562M67.441 18.555c-1.864 1.494-1.852 1.512.309.465 1.237-.6 2.25-1.3 2.25-1.555 0-.765-.519-.544-2.559 1.09M94 18c-.825.533-1.05.969-.5.969s1.675-.436 2.5-.969c.825-.533 1.05-.969.5-.969s-1.675.436-2.5.969m84.813 4.683c.721.289 1.584.253 1.916-.079.332-.332-.258-.568-1.312-.525-1.165.048-1.402.285-.604.604m-2.256 1.735c1.067.78 2.153 1.206 2.412.946.551-.55-2.028-2.326-3.41-2.349-.518-.008-.068.623.998 1.403m-76.251 11.05c-3.378 2.972-1.555 3.37 4.276.933 3.099-1.295 3.601-1.327 2.64-.168-.965 1.163-.814 1.403.811 1.283 1.099-.081 2.554-.707 3.233-1.391.981-.989.876-1.107-.516-.577-1.217.463-1.75.177-1.75-.941 0-2.547-5.432-2.009-8.694.861m14.444-.779c-2.428.635-2.187 1.963.483 2.662 2.5.654 4.346-.605 3.321-2.264-.699-1.13-.914-1.153-3.804-.398M208 38c-.836 1.561-.76 2 .342 2 1.724 0 3.893-2.431 2.983-3.342-1.15-1.15-2.223-.717-3.325 1.342m-22 .525c-3.025.759-12.25 2.568-20.5 4.021-8.25 1.452-19.6 3.711-25.222 5.02-5.623 1.308-16.198 2.897-23.5 3.53-13.204 1.145-13.39 1.131-33.278-2.401C59.065 44.356 54 43.659 54 44.634c0 .416 1.181 1.989 2.625 3.496 6.151 6.421-3.321 13.598-13.06 9.895-3.169-1.205-3.365.15-.664 4.58 2.56 4.199 8.523 7.741 12.763 7.581 4.006-.15 3.611 1.375-.595 2.299-2.52.553-3.617-.033-8.238-4.404-2.932-2.773-5.602-5.051-5.933-5.061-2.982-.097-5.091 85.033-2.613 105.48.799 6.6 2.153 13.66 3.008 15.689 1.768 4.197 1.333 3.897 30.207 20.826 11.55 6.773 25.233 14.939 30.406 18.149 5.173 3.21 10.235 5.836 11.248 5.836s8.705-3.891 17.094-8.647c30.711-17.41 62.293-35.729 63.834-37.027 1.674-1.409 2.732-14.7 4.94-62.008.544-11.65 1.236-21.827 1.539-22.616 1.04-2.71 5.13-27.678 4.618-28.19-.282-.282-2.8-.521-5.596-.532-4.749-.018-5.412-.346-10.083-4.993-8.61-8.564-10.823-12.052-8.541-13.462.577-.356 1.041.174 1.041 1.188 0 1.941 5.153 8.831 8.373 11.196 1.055.775 2.628 2.237 3.495 3.25 1.106 1.292 2.946 1.841 6.168 1.841h4.591l2.587-6.75c3.647-9.516 4.005-10.997 2.831-11.722-.57-.353-2.276.037-3.791.865-9.896 5.412-8.984 5.209-11.746 2.614-2.886-2.711-3.247-6.149-.853-8.135 1.431-1.186 4.345-6.78 4.345-8.34 0-.949-6.361-.423-12 .993m37 14.294c0 1.208 1.897 2.617 2.591 1.924.251-.252-.229-1.027-1.067-1.723-.95-.789-1.524-.865-1.524-.201m2.309 6.837c-1.205 1.264-1.768 2.56-1.25 2.88 1.694 1.047 1.065 3.449-.723 2.763-1.207-.463-1.44-.276-.847.683.521.843.127 1.851-1.086 2.784-1.332 1.025-1.528 1.604-.653 1.932.688.258 1.25 1.305 1.25 2.326 0 2.806 1.484 3.158 4.024.955 1.255-1.088 2.588-1.979 2.962-1.979 1.285 0 .68 2.914-.716 3.45-.768.295-1.143.947-.832 1.45.311.502-.336.678-1.437.39-2.425-.634-2.547.754-.425 4.856 1.147 2.219 2.099 2.911 3.5 2.544 1.058-.276 1.924-.095 1.924.404 0 .498-.675.906-1.5.906-1.797 0-1.85.698-.373 4.934.849 2.437 1.588 3.112 3 2.743 2.268-.593 2.517.862.293 1.715-1.208.464-1.415 1.371-.883 3.857.901 4.203.841 4.164 4.412 2.919 1.841-.642 3.051-.688 3.051-.116 0 1.818 2.071.932 2.869-1.228l.806-2.177.585 2.238c.44 1.685.049 2.44-1.588 3.061-1.194.453-2.663.429-3.264-.052-.601-.482-1.312-.657-1.58-.389-.815.815 1.59 12.315 2.835 13.559 1.386 1.385 3.337.416 3.337-1.658 0-1.214-.4-1.267-2.25-.296l-2.25 1.181 1.961-2.207c1.185-1.334 2.698-2.014 3.825-1.719 2.003.523 1.994 1.34.125-11.369-.323-2.203-.917-3.801-1.319-3.553-.401.248-.547-.795-.324-2.319.508-3.456-2.112-9.935-4.367-10.801-1.065-.408-2.225.06-3.135 1.265-1.414 1.87-1.438 1.868-1.078-.088.263-1.433 1.138-1.989 3.089-1.961 3.193.047 3.27-.325 1.038-5.005-1.212-2.542-2.335-3.534-4-3.534-1.469 0-2.315-.593-2.315-1.622 0-1.341.265-1.403 1.524-.358 3.015 2.502 2.873-.261-.33-6.438-4.834-9.325-5.25-9.69-7.885-6.926M228 63.559c0 .857.45 1.281 1 .941.55-.34 1-1.041 1-1.559s-.45-.941-1-.941-1 .702-1 1.559M37 65.5c-.718.865-.815 1.5-.229 1.5.558 0 1.274-.675 1.591-1.5.316-.825.419-1.5.229-1.5-.19 0-.906.675-1.591 1.5m-10.493.489c-.351.568.054.733.952.388 1.136-.435 1.394-.158.945 1.012-.34.886-.168 1.611.382 1.611 1.206 0 2.319-2.562 1.478-3.402-.928-.929-3.08-.705-3.757.391M219 66c0 .55.45 1 1 1s1-.45 1-1-.45-1-1-1-1 .45-1 1M32.663 71.83c-2.565 2.677-2.642 4.17-.216 4.17 1.027 0 3.906-5.98 3.213-6.674-.168-.168-1.517.959-2.997 2.504M223.5 71c.34.55.816 1 1.059 1s.441-.45.441-1-.477-1-1.059-1-.781.45-.441 1M21 82c1.958 1.266 3.282 1.266 2.5 0-.34-.55-1.379-.993-2.309-.985-1.457.014-1.484.15-.191.985m-3.362 1.5c-.316.825-.139 1.5.393 1.5.533 0 .969-.675.969-1.5s-.177-1.5-.393-1.5c-.216 0-.652.675-.969 1.5m219.986 4.299c-.317.513-1.712.716-3.1.45-1.388-.265-2.524-.075-2.524.422 0 1.309 5.745 1.55 6.534.273.367-.592.441-1.302.166-1.577-.275-.275-.759-.08-1.076.432M15.207 94.25c-.778.938-.466 1.25 1.251 1.25 1.419 0 2.105-.474 1.808-1.25-.264-.687-.827-1.25-1.251-1.25-.423 0-1.237.563-1.808 1.25m231.872.333c.048 1.165.285 1.402.604.605.289-.722.253-1.585-.079-1.917-.332-.332-.568.258-.525 1.312M20.667 96.667c-.367.366-.667 1.131-.667 1.7 0 .626.466.567 1.183-.15.651-.651.951-1.416.667-1.7-.284-.284-.817-.217-1.183.15M248.192 99c-.024 1.375.317 4.525.757 7l.801 4.5.007-4c.003-2.2-.337-5.35-.757-7-.692-2.719-.768-2.766-.808-.5M13 100c0 .55.45 1 1 1s1-.45 1-1-.45-1-1-1-1 .45-1 1m220 7.917c0 3.033.401 4.083 1.56 4.083 1.187 0 1.486-.879 1.25-3.673-.445-5.275-2.81-5.621-2.81-.41M5.232 110c0 1.925.206 2.713.457 1.75.252-.963.252-2.537 0-3.5-.251-.963-.457-.175-.457 1.75m228.632 3.469c-.258.259-.284 2.059-.057 4 .589 5.046 2.848 4.597 2.364-.469-.348-3.657-1.073-4.765-2.307-3.531M10 115.059c0 .582.45.781 1 .441s1-.816 1-1.059-.45-.441-1-.441-1 .477-1 1.059M47.158 118c0 1.375.227 1.938.504 1.25.278-.687.278-1.812 0-2.5-.277-.687-.504-.125-.504 1.25m191.046 6.747c.241 5.476.623 6.795 2.046 7.066 1.033.197 1.75-.277 1.75-1.156 0-.82.557-1.676 1.238-1.903.971-.324.981-.978.046-3.03-1.047-2.299-.954-2.694.762-3.238 1.074-.342 1.954-1.314 1.954-2.16 0-.962-.566-1.323-1.509-.961-.829.318-2.65.145-4.045-.386l-2.537-.964.295 6.732M47.158 123c0 1.375.227 1.938.504 1.25.278-.687.278-1.812 0-2.5-.277-.687-.504-.125-.504 1.25m-35.299.782c-.766.945-1.324 2.393-1.241 3.218.083.825.203 2.063.267 2.75.185 2.005 2.581 1.447 5.045-1.176 2.388-2.541 2.174-3.913-.86-5.536-1.354-.725-2.174-.535-3.211.744m221.328 2.391c.452 4.584 2.813 4.929 2.813.41 0-2.583-.436-3.583-1.563-3.583-1.156 0-1.482.828-1.25 3.173M13 127.008c0 1.759.249 1.853 2 .76 1.1-.687 2-1.591 2-2.009 0-.417-.9-.759-2-.759-1.336 0-2 .667-2 2.008m219.986 5.742c-.007.963-.285 2.762-.616 4-.434 1.619-.172 2.25.934 2.25 1.642 0 3.296-5.22 2.211-6.976-1.004-1.624-2.514-1.191-2.529.726m3.644 2.5c-1.265 4.723-.668 10.406 1.279 12.168 1.819 1.645 1.941 1.629 2.565-.336.36-1.135.394-2.487.074-3.004a1.113 1.113 0 01.367-1.525c1.442-.891 2.22 1.061 1.525 3.829-.791 3.153-3.501 4.255-5.097 2.072-1.629-2.227-3.015-1.163-3.628 2.787-.279 1.792-.809 4.384-1.18 5.759-.571 2.123-.502 2.233.458.729.621-.974 1.574-1.497 2.117-1.161.626.387.551 1.136-.204 2.045-.655.79-.865 1.761-.467 2.16.399.398 1.403-.175 2.233-1.275 1.503-1.991 1.507-1.991 1.156-.006-.194 1.096-1.584 2.583-3.09 3.305-1.506.722-2.77 2.075-2.808 3.008-.058 1.387-.227 1.332-.93-.305-.661-1.539-.876-1.625-.93-.372-.038.895-.745 2.187-1.57 2.872-2.187 1.815-1.838 3 .883 3 1.637 0 2.561.705 2.951 2.25.477 1.896.378 2.008-.634.714-1.844-2.361-7.823-.471-7.621 2.408.05.709.266.663.583-.122.592-1.466 3.338-1.698 3.338-.281 0 .532.787.673 1.75.312 1.532-.574 1.579-.446.378 1.032-.755.928-1.962 1.687-2.683 1.687-1.474 0-2.551 2.746-2.893 7.381-.127 1.715-.591 4.019-1.031 5.119l-.799 2 2.091-2c5.41-5.175 16.137-28.808 18.694-41.185 1.789-8.663.615-14.483-3.279-16.257-3.02-1.376-2.899-1.416-3.598 1.192M5.158 136c0 1.375.227 1.938.504 1.25.278-.687.278-1.812 0-2.5-.277-.687-.504-.125-.504 1.25m10.271 3.927c0 1.059.353 1.708.785 1.441 1.022-.632 1.022-3.368 0-3.368-.432 0-.785.867-.785 1.927M183.158 141c0 1.375.227 1.938.504 1.25.278-.687.278-1.812 0-2.5-.277-.687-.504-.125-.504 1.25m48.492-.206c-.228.388-.728 2.169-1.112 3.956-.546 2.547-.368 3.25.824 3.25 1.753 0 2.127-.518 2.993-4.146.439-1.84.186-2.816-.83-3.206-.804-.308-1.647-.243-1.875.146M182.31 153.5c.005 3.3.192 4.529.415 2.732.222-1.797.218-4.497-.01-6-.229-1.503-.411-.032-.405 3.268m46.658-1.916c-2.178 5.728-.163 8.145 2.367 2.839 2.022-4.24 2.018-4.074.133-4.797-1.024-.393-1.853.257-2.5 1.958m-208.635 6.12c-1.879 2.472-2.37 2.65-4.23 1.538-2.525-1.511-2.542-1.38-.494 3.738 1.571 3.926 1.722 4.02 6.5 4.02 5.233 0 5.726-.513 3.423-3.559-2.48-3.279-1.677-4.135.883-.941 1.323 1.65 2.663 2.745 2.978 2.434 1.007-.996-1.778-6.934-3.252-6.934-.781 0-1.929-.696-2.551-1.546-.981-1.341-1.413-1.176-3.257 1.25m28.032 8.796c.003 5.5.171 7.622.373 4.716.203-2.905.201-7.405-.004-10-.206-2.594-.371-.216-.369 5.284m177.639-6.011c-1.553 4.085-.651 5.428 1.471 2.189 1.337-2.04 1.526-3.077.711-3.892-.816-.816-1.397-.362-2.182 1.703m-44.808 9.219l-.196 7.208-4.5 2.637c-5.601 3.283-5.988 4.411-.443 1.295 5.761-3.238 6.079-3.881 5.687-11.508l-.352-6.84-.196 7.208M29 167.794c0 .529.727 1.564 1.615 2.302 1.398 1.16 1.566 1.086 1.25-.545-.376-1.944-2.865-3.469-2.865-1.757m-7 1.706c0 .917.484 1.505 1.075 1.308.591-.197 1.075-.786 1.075-1.308s-.484-1.111-1.075-1.308c-.591-.197-1.075.391-1.075 1.308m-2.423 3.25a668.094 668.094 0 012.121 5c.676 1.638 1.283 1.577 3.404-.342 1.631-1.476 1.719-1.439 1.212.5-.796 3.045 1.311 2.563 2.877-.658.958-1.969 1.053-3.389.336-5-1.177-2.645-2.297-2.8-5.257-.727-1.999 1.401-2.262 1.36-3.258-.5-1.914-3.576-3.095-2.154-1.435 1.727m113.687-.032c1.52.229 3.77.223 5-.014 1.23-.237-.014-.425-2.764-.418-2.75.008-3.756.202-2.236.432M24.651 183.35c2.494 4.911 9.832 14.887 12.984 17.65 1.949 1.709 2.299 1.842 1.108.421-.959-1.143-1.743-2.422-1.743-2.842 0-.42-.9-1.908-2-3.306-1.1-1.399-1.986-3.045-1.968-3.658.017-.613.629-.328 1.36.635 1.776 2.34 2.287 2.21 2.848-.725.557-2.911-2.239-6.126-3.891-4.474-1.427 1.427-6.349-.555-6.349-2.558 0-.856.675-1.815 1.5-2.131 2.577-.989 1.647-1.961-1.974-2.064l-3.474-.099 1.599 3.151m4.253.265c-1.16 1.398-1.086 1.566.545 1.25 1.037-.201 2.073-.927 2.301-1.615.594-1.784-1.26-1.546-2.846.365m138.846.957c-3.738 2.028-3.511 2.873.25.928 1.65-.853 3-1.765 3-2.026 0-.643-.107-.607-3.25 1.098M62 184.43c0 .275.9.981 2 1.57 1.1.589 2 .845 2 .57s-.9-.981-2-1.57c-1.1-.589-2-.845-2-.57m93.188 7.488c-8.135 4.769-12.151 7.607-7.188 5.08 4.375-2.227 16-9.211 16-9.612 0-.624-.129-.557-8.812 4.532M70 189.43c0 .275.9.981 2 1.57 1.1.589 2 .845 2 .57s-.9-.981-2-1.57c-1.1-.589-2-.845-2-.57m9.5 6.088c1.1.896 2.9 2.07 4 2.61l2 .982-2-1.628c-1.1-.896-2.9-2.07-4-2.61l-2-.982 2 1.628m-51.5-.14c0 .207.788.995 1.75 1.75 1.586 1.243 1.621 1.208.378-.378-1.307-1.666-2.128-2.195-2.128-1.372m107.022 8.047c-5.214 2.976-9.896 5.153-10.405 4.838-.509-.314-.605-.052-.212.582.392.635.222 1.155-.377 1.155-.6 0-1.35-.675-1.666-1.5-.317-.825-1.315-1.493-2.219-1.485-1.435.014-1.453.151-.143 1.08 1.124.797.497.932-2.5.537-2.2-.29-5.083-.847-6.406-1.237-1.719-.507-2.199-.375-1.681.464.399.645 1.214.872 1.811.503.617-.382.8-.209.423.4-.825 1.335-6.442.953-9.419-.64-1.225-.656-2.228-.992-2.228-.748 0 .245 3.395 2.309 7.544 4.586l7.545 4.141 14.955-8.693c12.914-7.505 15.937-9.438 14.706-9.4-.137.004-4.515 2.442-9.728 5.417M87.5 200.537c2.259 1.833 12.547 7.195 11 5.733-.55-.52-3.7-2.388-7-4.151s-5.1-2.475-4-1.582m23.975 9.504c-.354.572-1.618.765-2.809.429-1.191-.337-.251.572 2.09 2.019l4.257 2.632 3.982-2.238c2.19-1.231 3.755-2.466 3.477-2.744s-1.038.027-1.689.678c-1.566 1.566-3.097 1.519-2.17-.067.402-.687-.247-.393-1.441.655-2.072 1.817-2.76 1.32-2.29-1.655.179-1.139-2.674-.896-3.407.291m.025.959c-.34.55.11 1 1 1s1.34-.45 1-1c-.34-.55-.79-1-1-1-.21 0-.66.45-1 1m16.5 18c-1.118.723-.56.973 2.191.985 2.03.008 3.969-.435 4.309-.985.797-1.29-4.504-1.29-6.5 0m10.25-.311c.963.252 2.537.252 3.5 0 .963-.251.175-.457-1.75-.457s-2.713.206-1.75.457m-.05 3.511c-.66.66-1.2 1.92-1.2 2.8 0 .88-.515 2.115-1.144 2.744-.859.859-.609 1.004 1 .583 2.279-.596 3.001 1.099.894 2.099-.687.327.269.364 2.125.084 1.856-.281 5.231-.571 7.5-.646 2.269-.075 3.14-.328 1.936-.562-1.204-.234-3.791-2.197-5.748-4.364-4.042-4.474-3.767-4.334-5.363-2.738m12.3 8.947c-5.821 1.111-14.911 1.964-21.75 2.04-6.969.078-11.75.532-11.75 1.117 0 1.654 28.539.202 36-1.831 3.575-.973 6.928-2.153 7.45-2.622.522-.468.747-.797.5-.731-.247.065-4.95.978-10.45 2.027m-38.687 2.536c.721.289 1.584.253 1.916-.079.332-.332-.258-.568-1.312-.525-1.165.048-1.402.285-.604.604" fill="#1976D2" fill-rule="evenodd"/></svg>